<svg xmlns="http://www.w3.org/2000/svg" fill="none" viewBox="0 0 48 48" id="Construct--Streamline-Ionic-Filled" height="48" width="48"><desc>Construct Streamline Icon: https://streamlinehq.com</desc><g clip-path="url(#a)"><path fill="#fafafa" d="M47.2079 11.8253c-.1101-.2265-.2727-.4234-.4743-.5743-.2016-.1509-.4364-.2514-.6846-.2932-.2484-.0417-.5031-.0234-.743.0533-.2398.0766-.4579.2095-.6359.3876l-4.7952 4.7953c-.1957.1929-.4593.301-.7341.301s-.5385-.1081-.734-.301l-2.1075-2.1075c-.1928-.196-.3009-.4598-.3009-.7345 0-.2749.1081-.5387.3009-.7346l4.7699-4.77087c.1826-.18249.3175-.40693.3932-.65368.0758-.24673.0898-.50827.0411-.76172-.0488-.25345-.1588-.49111-.3207-.69216s-.3705-.35939-.6076-.46116c-3.7228-1.59373-8.3512-.69843-11.2499 2.18341-2.5134 2.49469-3.2653 6.37498-2.0625 10.65928.0519.1838.0516.3785-.0007.5622-.0522.1837-.1546.3494-.2955.4784L10.7574 34.2218c-.537.4831-.96998 1.0705-1.2726 1.7263-.3027.6559-.46866 1.3665-.48781 2.0886-.01915.722.10891 1.4404.37634 2.1114.26747.6709.66867 1.2805 1.17937 1.7913.5106.511 1.1199.9125 1.7908 1.1803.6708.2678 1.3892.3962 2.1112.3774.7221-.0188 1.4328-.1844 2.0888-.4867.656-.3023 1.2436-.7351 1.727-1.2718l15.1957-16.2373c.1272-.1378.2896-.2383.4696-.2906.1801-.0524.3709-.0547.5523-.0066 4.2187 1.125 8.0623.375 10.5401-2.0624 1.425-1.4063 2.4197-3.3909 2.8022-5.5978.359-2.0812.1322-4.1662-.6225-5.7186Z"></path><path fill="#fafafa" d="M40.9955 35.4703c-1.3068-1.0864-4.0984-3.5997-6.9435-6.2076l-6.1936 6.6192c2.6473 2.8122 5.0434 5.423 6.0933 6.6444l.0065.0075c.2523.2888.5608.5228.9068.6878.3459.1651.7219.2577 1.1049.2722h.1032c.7365-.0022 1.4429-.2922 1.9686-.8081l.0065-.0066 3.1338-3.1281c.2723-.2716.4848-.5971.624-.9556.1391-.3584.2019-.742.1843-1.1262-.0177-.3841-.1154-.7603-.2869-1.1046-.1714-.3441-.4128-.6488-.7088-.8943h.0009Z"></path><path fill="#fafafa" d="M11.11 20.108c.0015-.3558-.0959-.7051-.2813-1.0087-.026-.0411-.0398-.0886-.04-.1373-.0002-.0485.0133-.0962.0389-.1375.0257-.0413.0623-.0745.106-.0959.0436-.0214.0924-.03.1407-.025h.0057c.0787.0085.4996.0694 1.0968.4322.4434.2691 1.7091 1.1325 3.9121 3.3319-.0234.749.216 1.4827.6769 2.0737l6.209-5.7703c-.5499-.5206-1.2684-.8267-2.025-.8624-.007-.0077-.0136-.0159-.0197-.0244l-.0609-.0647-2.3006-3.1725c-.2557-.3472-.4235-.7514-.4888-1.1777-.0653-.4263-.0263-.8621.1138-1.27.211-.6076.5948-1.1403 1.1044-1.5328.5334-.4135 1.7371-.91128 2.7599-.99565.4765-.03937.9562-.00975 1.4241.08812.2242.0541.4452.12075.6618.19969.0658.02456.1331.04424.2016.05904.2976.0659.6082.0397.8904-.07535.2823-.11503.5229-.31331.6896-.5684.1667-.25516.2519-.55503.2439-.85973-.0079-.30469-.1085-.59973-.2883-.84584-.0244-.03282-.1237-.16781-.2709-.34969-.2746-.34636-.5756-.67107-.9-.97123-.7641-.68999-2.744-1.85342-5.3437-1.85342-1.4877-.00108-2.9616.28542-4.3406.84374-3.5971 1.44842-5.95018 3.42933-7.03204 4.48026l-.00843.00843c-.72795.71873-1.40196 1.49023-2.01654 2.30813-.23234.3276-.38337.7058-.44062 1.1034-.02675.1691-.11568.3222-.24938.4292-.13369.1069-.30253.1602-.47342.1492l-.10219 0c-.51106-.0034-1.00274.1955-1.36779.5531L.574491 17.0612l-.029999.03c-.347295.3608-.54316841.8409-.54735323 1.3417-.00418482.5008.18363723.9842.52485323 1.3507.017812.0188.034687.0366.053437.0544l4.453061 4.3434c.36691.3595.85977.5613 1.37342.5625.51107.0033 1.00276-.1955 1.36779-.5531l2.7618-2.6991c.1842-.1801.3304-.3954.4298-.6332.0993-.2376.1499-.4929.1487-.7505Z"></path></g><defs><clipPath id="a"><path fill="#fafafa" d="M0 0h47.999v47.999H0z" transform="translate(-.003 -.005)"></path></clipPath></defs></svg>